<?xml version="1.0" encoding="UTF-8" standalone="no"?>
<svg
   width="170"
   height="50"
   viewBox="0 0 170 50"
   fill="none"
   version="1.1"
   id="svg3789"
   sodipodi:docname="logo.svg"
   inkscape:version="1.1 (c4e8f9e, 2021-05-24)"
   xmlns:inkscape="http://www.inkscape.org/namespaces/inkscape"
   xmlns:sodipodi="http://sodipodi.sourceforge.net/DTD/sodipodi-0.dtd"
   xmlns="http://www.w3.org/2000/svg"
   xmlns:svg="http://www.w3.org/2000/svg">
  <defs
     id="defs3793" />
  <sodipodi:namedview
     id="namedview3791"
     pagecolor="#ffffff"
     bordercolor="#666666"
     borderopacity="1.0"
     inkscape:pageshadow="2"
     inkscape:pageopacity="0.0"
     inkscape:pagecheckerboard="0"
     showgrid="false"
     width="150px"
     inkscape:zoom="4.4379056"
     inkscape:cx="82.358669"
     inkscape:cy="9.1259264"
     inkscape:window-width="1620"
     inkscape:window-height="1265"
     inkscape:window-x="0"
     inkscape:window-y="147"
     inkscape:window-maximized="0"
     inkscape:current-layer="svg3789"
     fit-margin-top="0"
     fit-margin-left="0"
     fit-margin-right="0"
     fit-margin-bottom="0" />
  <path
     d="m 11.457289,30.834483 1.41128,-4.219825 h 8.08489 l 1.411292,4.219825 h 7.176026 L 21.455798,8.7879293 H 12.366255 L 4.2812988,30.834483 Z m 2.918235,-8.698018 2.439782,-7.277109 h 0.191454 l 2.439808,7.277109 z m 25.023321,15.243044 c 5.812532,0 9.663632,-2.389794 9.663632,-6.588049 V 14.299596 h -6.601923 v 2.88496 h -0.143527 c -0.717628,-1.679278 -2.439807,-3.100304 -5.166666,-3.100304 -3.635811,0 -7.176026,2.497522 -7.176026,8.482788 0,5.726897 3.300962,8.052097 7.223824,8.052097 2.487737,0 4.449169,-0.947312 5.166667,-2.626591 h 0.191455 v 2.798914 c 0,1.948374 -1.255851,2.583569 -2.966113,2.583569 -1.518936,0 -2.631261,-0.409122 -2.822584,-1.464049 h -6.362673 c 0.25117,3.186351 3.468324,5.468529 8.993934,5.468529 z m 0.239122,-10.980197 c -1.817905,0 -2.870383,-1.377886 -2.870383,-3.832272 0,-2.454385 1.052478,-3.918433 2.870383,-3.918433 1.817907,0 2.918314,1.464048 2.918314,3.918433 0,2.411361 -1.100407,3.832272 -2.918314,3.832272 z m 21.632616,10.980197 c 5.812663,0 9.663762,-2.389794 9.663762,-6.588049 V 14.299596 h -6.601923 v 2.88496 h -0.143525 c -0.717629,-1.679278 -2.439808,-3.100304 -5.166797,-3.100304 -3.635812,0 -7.175897,2.497522 -7.175897,8.482788 0,5.726897 3.300963,8.052097 7.223826,8.052097 2.487606,0 4.449038,-0.947312 5.166666,-2.626591 h 0.191324 v 2.798914 c 0,1.948374 -1.25572,2.583569 -2.965981,2.583569 -1.518938,0 -2.631262,-0.409122 -2.822586,-1.464049 H 52.27678 c 0.251041,3.186351 3.468323,5.468529 8.993803,5.468529 z m 0.239253,-10.980197 c -1.817906,0 -2.870384,-1.377886 -2.870384,-3.832272 0,-2.454385 1.052478,-3.918433 2.870384,-3.918433 1.817906,0 2.918183,1.464048 2.918183,3.918433 0,2.411361 -1.100277,3.832272 -2.918183,3.832272 z m 17.901076,4.693539 c 2.392009,0 4.197999,-0.731965 5.310323,-2.583569 h 0.143397 v 2.325201 h 6.171475 V 19.509757 c 0,-3.057166 -3.217282,-5.425505 -8.467759,-5.425505 -5.489599,0 -8.192622,2.583568 -8.419829,5.59783 h 6.075749 c 0.155444,-1.022748 0.992633,-1.507192 2.248484,-1.507192 1.148076,0 1.961431,0.473717 1.961431,1.334867 v 0.04314 c 0,0.958039 -1.17217,1.25943 -4.257842,1.463932 -3.791257,0.247643 -6.74545,1.625531 -6.74545,5.2533 0,3.294082 2.463771,4.822723 5.980021,4.822722 z m 2.152887,-3.746226 c -1.124243,0 -1.913633,-0.495167 -1.913633,-1.42091 0,-0.850425 0.669699,-1.507072 2.200554,-1.722419 1.05248,-0.150754 1.937598,-0.344529 2.631261,-0.602782 v 1.377887 c 0,1.507073 -1.423209,2.368224 -2.918182,2.368224 z m 19.276491,3.703204 c 2.58333,0 4.35344,-1.24882 5.11886,-2.928098 h 0.14353 v 2.712752 h 6.554 V 8.7879293 h -6.60193 v 8.3966267 h -0.0956 c -0.71763,-1.679278 -2.43994,-3.100304 -5.1668,-3.100304 -3.635806,0 -7.175892,2.497522 -7.175892,8.482788 0,5.726897 3.300963,8.482789 7.223822,8.482789 z m 2.4398,-4.564355 c -1.8179,0 -2.87038,-1.464048 -2.87038,-3.918434 0,-2.454385 1.05248,-3.918433 2.87038,-3.918433 1.81791,0 2.91819,1.464048 2.91819,3.918433 0,2.411361 -1.10028,3.918434 -2.91819,3.918434 z m 21.46812,4.650401 c 5.98001,0 9.51984,-3.44472 9.51984,-8.525813 0,-5.080976 -3.53983,-8.52581 -9.51984,-8.52581 -5.97991,0 -9.52012,3.444834 -9.52012,8.52581 0,5.081093 3.54021,8.525813 9.52012,8.525813 z m 0.048,-4.392031 c -1.77011,0 -2.8226,-1.58251 -2.8226,-4.176804 0,-2.594412 1.05249,-4.176803 2.8226,-4.176803 1.67438,0 2.72686,1.582391 2.72686,4.176803 0,2.594294 -1.05248,4.176804 -2.72686,4.176804 z m 12.15072,4.090639 h 6.60244 v -9.645331 c 0,-1.44248 0.8368,-2.325199 2.20081,-2.325199 1.36272,0 2.24875,0.882719 2.24875,2.325199 v 9.645331 h 6.31487 v -9.645331 c 0,-1.44248 0.8368,-2.325199 2.20081,-2.325199 1.36272,0 2.24746,0.882719 2.24746,2.325199 v 9.645331 h 6.60243 V 19.682082 c 0,-3.390973 -2.41584,-5.59783 -5.93274,-5.59783 -2.72673,0 -4.92755,1.334865 -5.54932,3.358674 h -0.19041 c -0.38344,-2.023809 -2.44047,-3.358674 -5.02341,-3.358674 -2.54796,0 -4.49748,1.291841 -5.26303,3.358674 h -0.19042 v -3.14333 h -6.26824 z"
     fill="#000000"
     id="path3787"
     style="stroke-width:1.22893" />
</svg>
