<svg width="125" height="44" viewBox="0 0 125 44" fill="none" xmlns="http://www.w3.org/2000/svg">
<path d="M6.13068 38L7.22017 34.3807H13.4616L14.5511 38H20.0909L13.8494 19.0909H6.83239L0.590909 38H6.13068ZM8.38352 30.5398L10.267 24.2983H10.4148L12.2983 30.5398H8.38352ZM27.7012 43.6136C32.1884 43.6136 35.1614 41.5639 35.1614 37.9631V23.8182H30.0648V26.2926H29.954C29.4 24.8523 28.0705 23.6335 25.9654 23.6335C23.1586 23.6335 20.4256 25.7756 20.4256 30.9091C20.4256 35.821 22.9739 37.8153 26.0023 37.8153C27.9228 37.8153 29.437 37.0028 29.9909 35.5625H30.1387V37.9631C30.1387 39.6342 29.1692 40.179 27.8489 40.179C26.6763 40.179 25.8176 39.8281 25.6699 38.9233H20.758C20.9519 41.6562 23.4355 43.6136 27.7012 43.6136ZM27.8858 34.196C26.4824 34.196 25.6699 33.0142 25.6699 30.9091C25.6699 28.804 26.4824 27.5483 27.8858 27.5483C29.2892 27.5483 30.1387 28.804 30.1387 30.9091C30.1387 32.9773 29.2892 34.196 27.8858 34.196ZM44.5859 43.6136C49.0732 43.6136 52.0462 41.5639 52.0462 37.9631V23.8182H46.9496V26.2926H46.8388C46.2848 24.8523 44.9553 23.6335 42.8501 23.6335C40.0433 23.6335 37.3104 25.7756 37.3104 30.9091C37.3104 35.821 39.8587 37.8153 42.8871 37.8153C44.8075 37.8153 46.3217 37.0028 46.8757 35.5625H47.0234V37.9631C47.0234 39.6342 46.054 40.179 44.7337 40.179C43.5611 40.179 42.7024 39.8281 42.5547 38.9233H37.6428C37.8366 41.6562 40.3203 43.6136 44.5859 43.6136ZM44.7706 34.196C43.3672 34.196 42.5547 33.0142 42.5547 30.9091C42.5547 28.804 43.3672 27.5483 44.7706 27.5483C46.174 27.5483 47.0234 28.804 47.0234 30.9091C47.0234 32.9773 46.174 34.196 44.7706 34.196ZM58.59 38.2216C60.4366 38.2216 61.8308 37.5938 62.6895 36.0057H62.8002V38H67.5645V28.2869C67.5645 25.6648 65.0808 23.6335 61.0275 23.6335C56.7896 23.6335 54.7029 25.8494 54.5275 28.4347H59.2179C59.3379 27.5575 59.9842 27.142 60.9537 27.142C61.84 27.142 62.4679 27.5483 62.4679 28.2869V28.3239C62.4679 29.1456 61.563 29.4041 59.1809 29.5795C56.2541 29.7919 53.9735 30.9737 53.9735 34.0852C53.9735 36.9105 55.8755 38.2216 58.59 38.2216ZM60.252 35.0085C59.3841 35.0085 58.7747 34.5838 58.7747 33.7898C58.7747 33.0604 59.2917 32.4972 60.4735 32.3125C61.286 32.1832 61.9693 32.017 62.5048 31.7955V32.9773C62.5048 34.2699 61.4061 35.0085 60.252 35.0085ZM75.1332 38.1847C77.1275 38.1847 78.494 37.1136 79.0849 35.6733H79.1957V38H84.2553V19.0909H79.1587V26.2926H79.0849C78.5309 24.8523 77.2013 23.6335 75.0962 23.6335C72.2894 23.6335 69.5565 25.7756 69.5565 30.9091C69.5565 35.821 72.1048 38.1847 75.1332 38.1847ZM77.0167 34.2699C75.6133 34.2699 74.8008 33.0142 74.8008 30.9091C74.8008 28.804 75.6133 27.5483 77.0167 27.5483C78.4201 27.5483 79.2695 28.804 79.2695 30.9091C79.2695 32.9773 78.4201 34.2699 77.0167 34.2699ZM93.5898 38.2585C98.2063 38.2585 100.939 35.304 100.939 30.946C100.939 26.5881 98.2063 23.6335 93.5898 23.6335C88.9734 23.6335 86.2404 26.5881 86.2404 30.946C86.2404 35.304 88.9734 38.2585 93.5898 38.2585ZM93.6268 34.4915C92.2603 34.4915 91.4478 33.1342 91.4478 30.9091C91.4478 28.6839 92.2603 27.3267 93.6268 27.3267C94.9194 27.3267 95.7319 28.6839 95.7319 30.9091C95.7319 33.1342 94.9194 34.4915 93.6268 34.4915ZM103.007 38H108.104V29.7273C108.104 28.4901 108.75 27.733 109.803 27.733C110.855 27.733 111.539 28.4901 111.539 29.7273V38H116.414V29.7273C116.414 28.4901 117.06 27.733 118.113 27.733C119.165 27.733 119.848 28.4901 119.848 29.7273V38H124.945V28.4347C124.945 25.5263 123.08 23.6335 120.365 23.6335C118.26 23.6335 116.561 24.7784 116.081 26.5142H115.934C115.638 24.7784 114.05 23.6335 112.056 23.6335C110.089 23.6335 108.584 24.7415 107.993 26.5142H107.846V23.8182H103.007V38Z" fill="black"/>
</svg>
