<svg width="201" height="40" viewBox="0 0 201 40" fill="none" xmlns="http://www.w3.org/2000/svg">
<g clip-path="url(#clip0_63_60)">
<path d="M58.134 30.6598C56.4042 30.6666 54.7132 30.1474 53.2853 29.171C51.806 28.1506 50.6106 26.7707 49.8114 25.1611C48.9194 23.3875 48.4715 21.4239 48.5062 19.439C48.4691 17.4452 48.9243 15.473 49.8312 13.697C50.6581 12.0852 51.9002 10.7232 53.4293 9.75164C54.9538 8.79564 56.7217 8.2994 58.5211 8.32236C60.0116 8.29399 61.4839 8.6531 62.794 9.36454C63.9585 9.99172 64.9375 10.9142 65.6327 12.0395V8.78886H69.8858V30.2727H65.6327V26.9427C64.8083 28.051 63.7381 28.9531 62.5062 29.5779C61.1623 30.2988 59.6589 30.6708 58.134 30.6598V30.6598ZM59.2357 26.7988C60.435 26.8223 61.6149 26.4945 62.6303 25.8559C63.6201 25.2154 64.4177 24.3183 64.9379 23.2603C65.5148 22.0846 65.8024 20.7881 65.7766 19.4787C65.8008 18.1902 65.513 16.9149 64.9379 15.7616C64.4143 14.7111 63.6171 13.8213 62.6303 13.1859C61.6149 12.5472 60.435 12.2194 59.2357 12.243C58.0568 12.2207 56.8979 12.5489 55.9057 13.1859C54.9256 13.8248 54.134 14.7141 53.6129 15.7616C53.04 16.9157 52.7524 18.1904 52.7742 19.4787C52.7509 20.7878 53.0383 22.0838 53.6129 23.2603C54.1307 24.3154 54.9226 25.2118 55.9057 25.8559C56.8979 26.4929 58.0568 26.8211 59.2357 26.7988V26.7988Z" fill="black"/>
<path d="M78.8189 39.6525C77.271 39.6494 75.7328 39.4083 74.2581 38.9379C72.9311 38.5571 71.6895 37.9254 70.6005 37.0768L72.1539 33.8064C73.0745 34.4773 74.1059 34.9813 75.201 35.2952C76.3705 35.67 77.5908 35.8625 78.8189 35.8659C83.3681 35.8659 85.6427 33.7154 85.6427 29.4143V26.8585C85.2115 27.5949 84.6339 28.2351 83.9454 28.7394C83.174 29.3234 82.3213 29.7916 81.4144 30.1289C80.4932 30.4784 79.5163 30.6583 78.531 30.66C76.6119 30.6946 74.7212 30.1927 73.072 29.2108C71.4828 28.2447 70.178 26.8748 69.2903 25.2406C68.3439 23.4751 67.8655 21.4966 67.9008 19.4937C67.8644 17.4947 68.3357 15.5191 69.2705 13.7518C70.1448 12.1143 71.4443 10.7428 73.0323 9.78155C74.6489 8.81381 76.5031 8.31546 78.3871 8.34234C79.8541 8.33296 81.301 8.68402 82.6005 9.36467C83.756 9.92651 84.7845 10.7186 85.6228 11.6922V8.78899H89.8363V28.9428C89.8363 32.3539 88.8553 34.9908 86.8933 36.8535C84.9314 38.7162 82.2399 39.6492 78.8189 39.6525ZM78.9777 26.7989C80.2286 26.823 81.4612 26.4964 82.536 25.856C83.5649 25.2397 84.4004 24.3474 84.9479 23.2803C85.5508 22.1123 85.8544 20.8129 85.8313 19.4987C85.8559 18.1849 85.5541 16.8855 84.9529 15.717C84.3959 14.6252 83.5407 13.7137 82.4866 13.0883C81.4326 12.4629 80.2227 12.1491 78.9975 12.1835C77.7716 12.1679 76.5666 12.5018 75.5236 13.1463C74.4999 13.7863 73.6669 14.6896 73.1117 15.7617C72.5136 16.9153 72.2117 18.1994 72.2333 19.4987C72.2117 20.7995 72.5136 22.0853 73.1117 23.2406C73.6647 24.309 74.4986 25.2064 75.5236 25.8361C76.5624 26.4735 77.759 26.8071 78.9777 26.7989V26.7989Z" fill="black"/>
<path d="M98.804 39.6527C97.2644 39.6472 95.7347 39.4062 94.268 38.9381C92.9406 38.5584 91.6988 37.9265 90.6105 37.077L92.1638 33.8066C93.0826 34.4776 94.1124 34.9815 95.206 35.2954C96.3757 35.6695 97.5958 35.862 98.8238 35.8661C103.376 35.8661 105.653 33.7156 105.653 29.4145V26.8587C105.221 27.5951 104.644 28.2353 103.955 28.7396C103.183 29.3251 102.328 29.7933 101.419 30.1292C100.5 30.4786 99.5247 30.6586 98.541 30.6602C96.6219 30.6948 94.7312 30.1929 93.0819 29.211C91.4928 28.2449 90.188 26.8751 89.3003 25.2408C88.3516 23.4762 87.873 21.4971 87.9107 19.4939C87.8744 17.4949 88.3456 15.5193 89.2804 13.752C90.1548 12.1146 91.4543 10.743 93.0422 9.78175C94.6636 8.80697 96.5253 8.30503 98.4169 8.33262C99.8823 8.32304 101.328 8.67414 102.625 9.35496C103.783 9.91621 104.813 10.7083 105.653 11.6825V8.7892H109.861V28.943C109.861 32.3541 108.88 34.991 106.918 36.8537C104.956 38.7164 102.251 39.6494 98.804 39.6527ZM98.9678 26.7991C100.219 26.8224 101.451 26.4958 102.526 25.8562C103.555 25.2399 104.391 24.3476 104.938 23.2805C105.528 22.1157 105.822 20.824 105.797 19.5187C105.821 18.2049 105.519 16.9055 104.918 15.7371C104.361 14.6453 103.506 13.7338 102.452 13.1084C101.398 12.4829 100.188 12.1692 98.9628 12.2036C97.7369 12.1879 96.5318 12.5219 95.4889 13.1664C94.4651 13.8064 93.6321 14.7097 93.077 15.7818C92.4788 16.9353 92.177 18.2195 92.1985 19.5187C92.177 20.8195 92.4788 22.1053 93.077 23.2607C93.63 24.3291 94.4638 25.2264 95.4889 25.8562C96.5369 26.4911 97.7426 26.8179 98.9678 26.7991Z" fill="black"/>
<path d="M117.444 30.6599C115.716 30.6669 114.026 30.1476 112.601 29.1711C111.121 28.1507 109.926 26.7708 109.127 25.1611C108.235 23.3876 107.787 21.424 107.821 19.4391C107.784 17.4453 108.239 15.4731 109.146 13.6971C109.973 12.0852 111.215 10.7232 112.744 9.75172C114.269 8.79572 116.037 8.29948 117.836 8.32244C119.325 8.29334 120.796 8.65252 122.104 9.36462C123.271 9.99032 124.252 10.9131 124.948 12.0396V8.78894H129.201V30.2728H124.948V26.9428C124.123 28.0511 123.053 28.9532 121.821 29.578C120.476 30.2989 118.971 30.6708 117.444 30.6599V30.6599ZM118.551 26.7989C119.75 26.8224 120.93 26.4946 121.945 25.8559C122.935 25.2155 123.733 24.3184 124.253 23.2604C124.828 22.0839 125.115 20.7879 125.092 19.4788C125.114 18.1905 124.826 16.9158 124.253 15.7616C123.73 14.7112 122.932 13.8214 121.945 13.186C120.93 12.5473 119.75 12.2195 118.551 12.243C117.372 12.2208 116.213 12.5489 115.221 13.186C114.241 13.8249 113.449 14.7141 112.928 15.7616C112.355 16.9158 112.068 18.1905 112.089 19.4788C112.066 20.7879 112.354 22.0839 112.928 23.2604C113.446 24.3155 114.238 25.2119 115.221 25.8559C116.213 26.493 117.372 26.8211 118.551 26.7989Z" fill="black"/>
<path d="M137.479 30.66C135.624 30.6915 133.8 30.1884 132.223 29.2109C130.677 28.2317 129.415 26.8624 128.566 25.2407C127.644 23.4676 127.18 21.492 127.216 19.4938C127.179 17.4994 127.635 15.5267 128.546 13.7519C129.377 12.1299 130.626 10.7593 132.164 9.78164C133.717 8.80648 135.521 8.30309 137.355 8.33251C138.747 8.32629 140.122 8.63329 141.38 9.23077C142.537 9.74874 143.574 10.5007 144.427 11.4392V0H148.64V30.273H144.427V27.2953C143.666 28.3086 142.669 29.1211 141.524 29.6625C140.275 30.3151 138.888 30.6573 137.479 30.66V30.66ZM138.05 27.0223C139.256 27.0429 140.439 26.6967 141.444 26.0298C142.439 25.3614 143.237 24.4374 143.752 23.3548C144.328 22.1489 144.615 20.8252 144.591 19.4888C144.615 18.1541 144.328 16.832 143.752 15.6278C143.235 14.5447 142.439 13.6195 141.444 12.9479C140.427 12.3091 139.251 11.9703 138.05 11.9703C136.849 11.9703 135.672 12.3091 134.655 12.9479C133.661 13.6195 132.864 14.5447 132.347 15.6278C131.763 16.8333 131.469 18.1591 131.489 19.4988C131.464 20.8351 131.751 22.1588 132.328 23.3648C132.843 24.4474 133.64 25.3713 134.635 26.0397C135.647 26.707 136.838 27.0498 138.05 27.0223V27.0223Z" fill="black"/>
<path d="M157.548 30.6598C155.579 30.6943 153.637 30.1934 151.931 29.2107C150.298 28.2596 148.949 26.8888 148.025 25.2405C147.051 23.4839 146.558 21.5016 146.596 19.4936C146.559 17.4872 147.052 15.5067 148.025 13.7516C148.948 12.1023 150.297 10.7311 151.931 9.78142C153.644 8.83113 155.572 8.33252 157.531 8.33252C159.491 8.33252 161.418 8.83113 163.132 9.78142C164.763 10.7326 166.11 12.1035 167.032 13.7516C168.007 15.5062 168.502 17.4868 168.466 19.4936C168.502 21.502 168.008 23.4844 167.032 25.2405C166.109 26.8876 164.762 28.2582 163.132 29.2107C161.436 30.1892 159.506 30.6899 157.548 30.6598V30.6598ZM157.548 26.8186C158.762 26.8368 159.955 26.5023 160.983 25.8559C161.994 25.2126 162.813 24.3093 163.355 23.2405C163.938 22.0818 164.22 20.7948 164.174 19.4985C164.222 18.1893 163.94 16.889 163.355 15.7169C162.815 14.6518 161.995 13.7544 160.983 13.1214C159.941 12.4993 158.751 12.1708 157.538 12.1708C156.326 12.1708 155.135 12.4993 154.094 13.1214C153.074 13.7596 152.247 14.6638 151.702 15.7368C151.118 16.8932 150.838 18.1792 150.888 19.4737C150.838 20.7698 151.118 22.0574 151.702 23.2157C152.248 24.2878 153.075 25.1917 154.094 25.831C155.129 26.4775 156.328 26.8133 157.548 26.7988V26.8186Z" fill="black"/>
<path d="M166.422 30.2728V8.78888H170.695V12.1834C171.436 11.0918 172.415 10.1824 173.558 9.52337C174.72 8.81552 176.054 8.43962 177.414 8.43652C180.769 8.43652 182.95 9.93528 183.955 12.9328C184.404 12.0676 185.023 11.3027 185.777 10.6847C186.573 10.008 187.469 9.45739 188.432 9.05191C189.354 8.65059 190.349 8.44122 191.355 8.43652C196.109 8.43652 198.495 11.4142 198.511 17.3695V30.2728H194.258V17.6177C194.258 15.7963 193.911 14.4514 193.216 13.5929C192.521 12.7343 191.439 12.3075 189.965 12.3075C189.252 12.2872 188.542 12.4083 187.876 12.6639C187.21 12.9194 186.601 13.3043 186.084 13.7963C185.582 14.2579 185.184 14.8209 184.916 15.4481C184.649 16.0753 184.517 16.7522 184.531 17.434V30.2728H180.278V17.5383C180.278 15.8509 179.917 14.5556 179.196 13.6524C178.816 13.1995 178.336 12.8419 177.793 12.6083C177.25 12.3748 176.66 12.2717 176.07 12.3075C175.113 12.2927 174.17 12.5252 173.33 12.9824C172.538 13.4043 171.868 14.023 171.385 14.779C170.913 15.5464 170.673 16.4341 170.695 17.3348V30.2728H166.422Z" fill="black"/>
<path d="M19.7419 13.6773C20.2874 13.6773 20.7295 13.2352 20.7295 12.6897C20.7295 12.1443 20.2874 11.7021 19.7419 11.7021C19.1965 11.7021 18.7543 12.1443 18.7543 12.6897C18.7543 13.2352 19.1965 13.6773 19.7419 13.6773Z" fill="white" stroke="white" stroke-width="2" stroke-miterlimit="10"/>
<path d="M19.742 14.169C19.3493 14.169 18.9655 14.0525 18.6391 13.8344C18.3126 13.6163 18.0582 13.3062 17.9079 12.9435C17.7577 12.5808 17.7184 12.1816 17.795 11.7966C17.8716 11.4115 18.0606 11.0578 18.3383 10.7802C18.6159 10.5025 18.9696 10.3135 19.3547 10.2369C19.7397 10.1603 20.1389 10.1996 20.5016 10.3498C20.8644 10.5001 21.1744 10.7545 21.3925 11.081C21.6106 11.4074 21.7271 11.7912 21.7271 12.1838C21.7271 12.7103 21.5179 13.2152 21.1456 13.5875C20.7734 13.9598 20.2684 14.169 19.742 14.169Z" fill="black"/>
<path d="M19.742 14.6648C19.2405 14.6599 18.7517 14.5067 18.3371 14.2245C17.9225 13.9424 17.6007 13.5438 17.4122 13.0791C17.2237 12.6144 17.1769 12.1043 17.2777 11.6131C17.3785 11.1218 17.6225 10.6714 17.9788 10.3185C18.3351 9.96565 18.7879 9.7261 19.2801 9.63005C19.7723 9.534 20.2819 9.58575 20.7448 9.77877C21.2076 9.9718 21.603 10.2975 21.8812 10.7148C22.1593 11.1321 22.3077 11.6223 22.3077 12.1238C22.3071 12.4594 22.2401 12.7916 22.1106 13.1012C21.9811 13.4108 21.7917 13.6918 21.5533 13.9279C21.3148 14.164 21.032 14.3507 20.7212 14.4772C20.4103 14.6036 20.0775 14.6674 19.742 14.6648V14.6648ZM19.742 10.6945C19.463 10.6936 19.19 10.7754 18.9576 10.9297C18.7251 11.0839 18.5437 11.3037 18.4363 11.5612C18.3288 11.8186 18.3002 12.1022 18.354 12.3759C18.4079 12.6496 18.5417 12.9012 18.7386 13.0988C18.9355 13.2964 19.1867 13.4312 19.4602 13.486C19.7337 13.5407 20.0174 13.5131 20.2752 13.4066C20.533 13.3001 20.7535 13.1194 20.9085 12.8875C21.0636 12.6556 21.1464 12.3829 21.1464 12.104C21.1412 11.7345 20.9911 11.3818 20.7284 11.1219C20.4657 10.862 20.1115 10.7157 19.742 10.7144V10.6945Z" fill="black"/>
<path d="M25.072 19.0569H26.9529C26.9732 19.0577 26.9934 19.0536 27.0118 19.0451C27.0303 19.0366 27.0464 19.0238 27.059 19.0078C27.0716 18.9919 27.0802 18.9732 27.0842 18.9532C27.0882 18.9333 27.0874 18.9127 27.0819 18.8931C26.3276 16.1587 22.7147 13.7021 19.871 13.1115C19.7844 13.0917 19.6945 13.0917 19.608 13.1115C16.7643 13.7021 13.1564 16.1587 12.3921 18.8931C12.3876 18.9126 12.3876 18.9329 12.392 18.9524C12.3964 18.9719 12.4051 18.9902 12.4175 19.0059C12.4298 19.0216 12.4456 19.0343 12.4635 19.0431C12.4814 19.052 12.5011 19.0567 12.5211 19.0569H14.402" stroke="white" stroke-width="2" stroke-miterlimit="10"/>
<path d="M26.9529 20.0449H25.072V18.0598H25.6278C24.2275 16.0508 22.1292 14.6354 19.7419 14.0896C17.3522 14.6358 15.2509 16.0509 13.8462 18.0598H14.402V20.0449H12.5211C12.3489 20.0451 12.1791 20.0053 12.0249 19.9287C11.8708 19.852 11.7365 19.7406 11.6328 19.6032C11.5244 19.4648 11.4508 19.3025 11.418 19.1298C11.3852 18.9572 11.3942 18.7792 11.4442 18.6107C11.8462 17.1218 12.9727 15.633 14.6203 14.3923C16.0355 13.3014 17.6688 12.5279 19.4094 12.1243C19.6289 12.0797 19.855 12.0797 20.0744 12.1243C23.2208 12.7794 27.1613 15.4444 28.0149 18.6107C28.0609 18.7769 28.0678 18.9516 28.0349 19.121C28.0021 19.2904 27.9304 19.4498 27.8256 19.5869C27.7208 19.7239 27.5857 19.8348 27.4308 19.9108C27.2759 19.9868 27.1055 20.0259 26.933 20.0251L26.9529 20.0449Z" fill="black"/>
<path d="M26.9528 20.6154H24.5062V17.5285C23.2346 16.1279 21.5769 15.135 19.7419 14.6749C17.9046 15.1327 16.2447 16.1259 14.9727 17.5285V20.6154H12.5211C12.262 20.6135 12.0068 20.5523 11.775 20.4366C11.5432 20.3208 11.341 20.1535 11.1839 19.9475C11.0268 19.7415 10.9189 19.5023 10.8685 19.2482C10.8181 18.994 10.8266 18.7317 10.8933 18.4814C11.33 16.8933 12.531 15.2853 14.2729 13.9603C15.7564 12.8197 17.4674 12.0107 19.2903 11.5881C19.5868 11.5286 19.8921 11.5286 20.1886 11.5881C23.4987 12.2779 27.6327 15.1067 28.5806 18.4814C28.6494 18.7318 28.6594 18.9948 28.6099 19.2498C28.5603 19.5048 28.4526 19.7449 28.2951 19.9514C28.1375 20.1579 27.9345 20.3253 27.7016 20.4404C27.4688 20.5556 27.2126 20.6155 26.9528 20.6154ZM25.6377 19.4789H26.9528C27.0382 19.4782 27.1222 19.4581 27.1987 19.4203C27.2752 19.3825 27.3421 19.3279 27.3945 19.2605C27.4482 19.1911 27.4844 19.1097 27.4999 19.0233C27.5155 18.9369 27.51 18.8481 27.4839 18.7643C26.6948 15.8958 22.9578 13.3052 19.9553 12.6799C19.8129 12.65 19.6659 12.65 19.5236 12.6799C17.8625 13.0804 16.307 13.8336 14.9628 14.8883C13.4193 16.0645 12.3623 17.4541 11.9851 18.8089C11.9597 18.8931 11.955 18.9822 11.9714 19.0686C11.9878 19.155 12.0249 19.2362 12.0794 19.3052C12.131 19.3722 12.1971 19.4266 12.2727 19.4644C12.3484 19.5022 12.4316 19.5224 12.5161 19.5236H13.8312V18.6402H12.8188L13.3747 17.7667C14.8554 15.6234 17.0871 14.1143 19.6278 13.5384L19.7518 13.5136L19.8709 13.5384C22.4065 14.1168 24.6327 15.6257 26.1092 17.7667L26.66 18.6402H25.6377V19.4789Z" fill="black"/>
<path d="M19.737 29.9803L19.4789 29.9058C18.228 29.4899 17.0959 28.7783 16.1787 27.8314C14.7296 26.3971 12.9827 23.7123 12.8884 19.077V18.0845H26.5856V19.077C26.5856 23.7272 24.8288 26.417 23.3598 27.8562C22.4183 28.8044 21.2651 29.5154 19.9951 29.9306L19.737 29.9803ZM14.9132 20.0547C15.4095 25.7669 18.7792 27.5336 19.7469 27.9207C20.7395 27.5336 24.2134 25.7867 24.5807 20.0547H14.9132Z" fill="black"/>
<path d="M19.732 30.5659L19.33 30.4568C17.9865 30.0094 16.7686 29.249 15.7767 28.2384C14.2531 26.7496 12.4218 23.9158 12.3027 19.092L12.2729 17.5039H27.1514V19.0573C27.1514 23.9059 25.3052 26.7297 23.7568 28.2434C22.7474 29.2602 21.5083 30.0194 20.1439 30.4568L19.732 30.5659ZM13.4491 18.6553V19.0821C13.5385 23.5486 15.196 26.0846 16.5658 27.4444C17.4193 28.3163 18.4643 28.9773 19.6179 29.3749L19.727 29.4047L19.8412 29.3749C21.0161 28.9881 22.0825 28.3282 22.9528 27.4493C24.3474 26.0846 26.0099 23.5238 26.0099 19.0721V18.6553H13.4491ZM19.7419 28.5213L19.5335 28.4419C18.4417 28.0002 14.8635 26.0945 14.3672 20.0945L14.3176 19.4791H25.1861L25.1464 20.0796C24.7692 26.1243 21.072 28.02 19.9504 28.4419L19.7419 28.5213ZM15.5434 20.6156C16.1241 25.1565 18.6799 26.7992 19.7519 27.2955C20.8486 26.7992 23.469 25.1813 23.9653 20.6156H15.5434Z" fill="black"/>
<path d="M19.7419 36.129C16.5466 36.13 13.4227 35.1833 10.7655 33.4086C8.10824 31.634 6.03699 29.1112 4.81373 26.1592C3.59046 23.2073 3.27015 19.9589 3.89329 16.8249C4.51643 13.6909 6.05503 10.8121 8.31449 8.55265C10.5739 6.29319 13.4527 4.75459 16.5867 4.13145C19.7207 3.5083 22.9692 3.82862 25.9211 5.05188C28.873 6.27515 31.3959 8.3464 33.1705 11.0036C34.9451 13.6609 35.8918 16.7848 35.8908 19.9801C35.8856 24.2614 34.1825 28.3659 31.1551 31.3933C28.1278 34.4207 24.0233 36.1237 19.7419 36.129V36.129ZM19.7419 5.80144C16.9375 5.80046 14.1957 6.63119 11.8634 8.18857C9.53103 9.74594 7.71294 11.96 6.63903 14.5507C5.56512 17.1415 5.28363 19.9925 5.83016 22.7432C6.37668 25.4939 7.72668 28.0208 9.7094 30.0042C11.6921 31.9876 14.2185 33.3385 16.969 33.886C19.7196 34.4335 22.5707 34.153 25.1618 33.08C27.7529 32.007 29.9676 30.1896 31.5258 27.8579C33.084 25.5261 33.9156 22.7846 33.9156 19.9801C33.913 16.2214 32.419 12.6172 29.7617 9.95893C27.1043 7.30063 23.5007 5.80539 19.7419 5.80144V5.80144Z" fill="black"/>
<path d="M19.7419 36.7245C16.4347 36.7255 13.2015 35.746 10.451 33.9097C7.7004 32.0735 5.55599 29.463 4.2888 26.4082C3.02162 23.3534 2.68855 19.9915 3.3317 16.7475C3.97486 13.5035 5.56535 10.5229 7.90214 8.18268C10.2389 5.84243 13.2171 4.24751 16.4602 3.59954C19.7032 2.95158 23.0656 3.27966 26.1223 4.54232C29.1789 5.80497 31.7926 7.94551 33.6329 10.6933C35.4733 13.4412 36.4576 16.6729 36.4615 19.9801C36.4615 24.4167 34.7008 28.672 31.566 31.8114C28.4311 34.9509 24.1785 36.718 19.7419 36.7245V36.7245ZM19.7419 4.41684C16.6587 4.41585 13.6444 5.32925 11.0803 7.04149C8.51618 8.75374 6.51745 11.1879 5.33686 14.0362C4.15627 16.8844 3.84687 20.0188 4.44778 23.043C5.04869 26.0671 6.53292 28.8451 8.71275 31.0256C10.8926 33.2061 13.6701 34.6913 16.694 35.2931C19.718 35.895 22.8525 35.5866 25.7011 34.4069C28.5498 33.2272 30.9846 31.2293 32.6976 28.6657C34.4107 26.1022 35.325 23.0882 35.325 20.0049C35.3277 15.8685 33.6877 11.9003 30.7656 8.97255C27.8434 6.04485 23.8784 4.39728 19.7419 4.39202V4.41684ZM19.7419 34.7493C16.8254 34.7503 13.9741 33.8866 11.5483 32.2674C9.12257 30.6482 7.23132 28.3462 6.11364 25.6523C4.99595 22.9585 4.702 19.9937 5.26894 17.1328C5.83588 14.272 7.23826 11.6434 9.29881 9.57935C11.3594 7.51533 13.9856 6.10853 16.8455 5.53678C19.7054 4.96503 22.6707 5.25399 25.3664 6.36715C28.0621 7.48031 30.3673 9.36768 31.9906 11.7907C33.6139 14.2137 34.4824 17.0636 34.4863 19.9801C34.485 23.8915 32.9317 27.6426 30.1672 30.4098C27.4028 33.177 23.6533 34.7342 19.7419 34.7394V34.7493ZM19.7419 6.39202C17.0483 6.39105 14.4149 7.18922 12.1751 8.68553C9.93525 10.1818 8.18969 12.309 7.15934 14.7978C6.12898 17.2866 5.86014 20.0251 6.38685 22.6668C6.91356 25.3084 8.21214 27.7344 10.1182 29.6377C12.0243 31.541 14.4522 32.8361 17.0946 33.3589C19.737 33.8818 22.4752 33.6089 24.9625 32.575C27.4497 31.541 29.5744 29.7923 31.0674 27.5503C32.5604 25.3083 33.3548 22.6738 33.3499 19.9801C33.3472 16.3714 31.9129 12.9112 29.3616 10.359C26.8103 7.80679 23.3506 6.37115 19.7419 6.36721V6.39202Z" fill="black"/>
<path d="M20.7295 4.80908H18.7543V11.1813H20.7295V4.80908Z" fill="black"/>
<path d="M21.3151 11.7469H18.1836V4.24316H21.3151V11.7469ZM19.33 10.6104H20.1687V5.37468H19.33V10.6104Z" fill="black"/>
<path d="M20.7295 28.2085H18.7543V34.5807H20.7295V28.2085Z" fill="black"/>
<path d="M21.3151 35.1513H18.1836V27.6426H21.3151V35.1513ZM19.33 34.0148H20.1687V28.784H19.33V34.0148Z" fill="black"/>
</g>
<defs>
<clipPath id="clip0_63_60">
<rect width="198.511" height="40" fill="white"/>
</clipPath>
</defs>
</svg>
